<svg width="62" height="62" viewBox="0 0 62 62" fill="none" xmlns="http://www.w3.org/2000/svg">
<path d="M21.5396 31H12.0791V23.4316C12.0791 19.2572 15.473 15.8633 19.6475 15.8633H20.5934C22.1662 15.8633 23.4316 14.598 23.4316 13.0251V7.34894C23.4316 5.77617 22.1663 4.51074 20.5934 4.51074H19.6475C9.19368 4.51074 0.726562 12.9779 0.726562 23.4316V51.813C0.726562 54.9468 3.26905 57.4893 6.40283 57.4893H21.5396C24.6733 57.4893 27.2158 54.9468 27.2158 51.813V36.6763C27.2158 33.5425 24.6733 31 21.5396 31Z" fill="#3951A3"/>
<path d="M55.5972 31H46.1367V23.4316C46.1367 19.2572 49.5306 15.8633 53.7051 15.8633H54.6511C56.2238 15.8633 57.4893 14.598 57.4893 13.0251V7.34894C57.4893 5.77617 56.224 4.51074 54.6511 4.51074H53.7051C43.2513 4.51074 34.7842 12.9779 34.7842 23.4316V51.813C34.7842 54.9468 37.3267 57.4893 40.4604 57.4893H55.5972C58.731 57.4893 61.2734 54.9468 61.2734 51.813V36.6763C61.2734 33.5425 58.731 31 55.5972 31Z" fill="#3951A3"/>
</svg>